<svg xmlns="http://www.w3.org/2000/svg" viewBox="0 0 263.1 233.15"><defs><style>.cls-1,.cls-2,.cls-3{fill:none;stroke:#000;stroke-miterlimit:10;}.cls-2{stroke-width:7px;}.cls-3{stroke-width:4px;}</style></defs><title>Asset 2</title><g id="Layer_2" data-name="Layer 2"><g id="Layer_1-2" data-name="Layer 1"><path class="cls-1" d="M8.24,97A819,819,0,0,0,55.42,219.9"/><path class="cls-1" d="M76.27,104.47A178.78,178.78,0,0,0,86.83,142.8,301.65,301.65,0,0,0,92.61,91c-11.41-.57-22,10.43-21,21.81L74,105.91l-.69,18.49,13.12-42q-.35,21.3-2.36,42.53l8.19-30.47.18,34.06q-1.13-25.61-4.07-51.09"/><path class="cls-2" d="M61.72,209.84,51.22,222c-2.06,2.38-4.17,4.8-6.93,6.32s-6.32,2-9,.3"/><path class="cls-3" d="M8.62,85.11a445.54,445.54,0,0,1-6.66,50"/><path class="cls-3" d="M239.19,46.72a38.33,38.33,0,0,0-19.54,25.57"/><path class="cls-3" d="M231.16,42.8c-7.87-.26-13.06,8.36-14.39,16.12s-.75,16.23-4.93,22.9"/><path class="cls-3" d="M225.26,22.26A442.15,442.15,0,0,0,203.1,71.2"/><path class="cls-3" d="M196.85,27.12l-4.06,16"/><path class="cls-3" d="M209.35,26.58,193.21,78.22"/><path class="cls-3" d="M189.89.13l-2,30"/><path class="cls-3" d="M179.92,13.13l-1,21"/><path class="cls-3" d="M155.59,6.17A476.94,476.94,0,0,0,179.36,117"/><path class="cls-3" d="M181.77,50.16c2.57,18.63.21,34.72,5.55,53.15"/><path class="cls-3" d="M261.78,144.3A142.61,142.61,0,0,1,223.9,91.14"/><path class="cls-3" d="M207.46,92.27a253.35,253.35,0,0,0,38.74,79.67"/><path class="cls-3" d="M200.42,114.21a109,109,0,0,0,14.49,71.54"/></g></g></svg>