<svg xmlns="http://www.w3.org/2000/svg" viewBox="0 0 40.08 63.3"><defs><style>.cls-1{stroke:#000;stroke-miterlimit:10;stroke-width:7px;}</style></defs><title>Asset 1</title><g id="Layer_2" data-name="Layer 2"><g id="Layer_1-2" data-name="Layer 1"><path class="cls-1" d="M36.17,14.3a12.2,12.2,0,0,0-1.89-6.07c-1.51-2-4-3-6.46-3.68C21.18,2.74,13.29,2.94,8.36,7.75,3,13,3,21.49,4,28.91a5.89,5.89,0,0,0,1.13,3.24,6,6,0,0,0,3.67,1.5c6.06,1,13.2,1.64,17.46-2.78,2.71-2.81,3.44-6.92,4-10.78.48-3.06.76-6.71-1.57-8.75-3.48-3.05-8.87.45-11.42,4.31a34,34,0,0,0-5.58,19.67,47.55,47.55,0,0,0,3.52-23.25c2.45,15.15,5,30.65,12.52,44A71,71,0,0,0,36.17,14.3Z"/></g></g></svg>